<svg width="883.4" height="58.36" viewBox="0 0 883.4 58.36" xmlns="http://www.w3.org/2000/svg"><g id="svgGroup" stroke-linecap="round" fill-rule="evenodd" font-size="9pt" stroke="#000" stroke-width="0.25mm" fill="#000" style="stroke:#000;stroke-width:0.25mm;fill:#000"><path d="M 708.321 23.711 L 708.321 7.617 A 5.278 5.278 0 0 1 708.356 6.993 Q 708.436 6.322 708.703 5.913 A 1.59 1.59 0 0 1 708.712 5.898 Q 710.152 3.786 712.536 1.49 A 45.419 45.419 0 0 1 713.634 0.469 A 3.326 3.326 0 0 1 713.943 0.247 Q 714.278 0.037 714.554 0.006 A 0.841 0.841 0 0 1 714.649 0 Q 715.118 0 715.626 0.469 A 35.008 35.008 0 0 1 717.025 1.741 Q 717.727 2.418 718.306 3.063 A 20.434 20.434 0 0 1 718.517 3.301 A 32.494 32.494 0 0 1 719.736 4.786 A 25.419 25.419 0 0 1 720.548 5.898 A 2.279 2.279 0 0 1 720.804 6.496 Q 720.939 6.976 720.939 7.617 L 720.939 55.313 A 4.407 4.407 0 0 1 720.906 55.869 Q 720.829 56.47 720.571 56.802 A 1.074 1.074 0 0 1 720.45 56.934 A 1.39 1.39 0 0 1 720.011 57.198 Q 719.605 57.358 718.99 57.379 A 5.66 5.66 0 0 1 718.79 57.383 L 710.47 57.383 A 4.819 4.819 0 0 1 709.895 57.351 Q 709.298 57.279 708.949 57.043 A 1.188 1.188 0 0 1 708.81 56.934 A 1.245 1.245 0 0 1 708.512 56.495 Q 708.347 56.106 708.325 55.507 A 5.194 5.194 0 0 1 708.321 55.313 L 708.321 34.57 L 685.118 34.57 L 685.118 55.313 A 4.407 4.407 0 0 1 685.086 55.869 Q 685.009 56.47 684.751 56.802 A 1.074 1.074 0 0 1 684.63 56.934 A 1.39 1.39 0 0 1 684.191 57.198 Q 683.785 57.358 683.17 57.379 A 5.66 5.66 0 0 1 682.97 57.383 L 674.649 57.383 A 4.819 4.819 0 0 1 674.075 57.351 Q 673.478 57.279 673.129 57.043 A 1.188 1.188 0 0 1 672.989 56.934 A 1.245 1.245 0 0 1 672.692 56.495 Q 672.527 56.106 672.505 55.507 A 5.194 5.194 0 0 1 672.501 55.313 L 672.501 3.438 A 4.407 4.407 0 0 1 672.533 2.881 Q 672.61 2.28 672.869 1.948 A 1.074 1.074 0 0 1 672.989 1.816 A 1.39 1.39 0 0 1 673.429 1.552 Q 673.834 1.392 674.449 1.371 A 5.66 5.66 0 0 1 674.649 1.367 L 682.97 1.367 A 4.819 4.819 0 0 1 683.544 1.399 Q 684.142 1.471 684.49 1.707 A 1.188 1.188 0 0 1 684.63 1.816 A 1.245 1.245 0 0 1 684.927 2.255 Q 685.092 2.644 685.115 3.243 A 5.194 5.194 0 0 1 685.118 3.438 L 685.118 23.711 L 708.321 23.711 Z M 141.681 53.164 L 141.681 55.313 Q 141.681 56.484 141.212 56.934 A 1.335 1.335 0 0 1 140.773 57.205 Q 140.323 57.383 139.61 57.383 L 131.485 57.383 A 4.213 4.213 0 0 1 130.925 57.348 Q 130.256 57.258 129.903 56.934 A 1.245 1.245 0 0 1 129.606 56.495 Q 129.441 56.106 129.419 55.507 A 5.194 5.194 0 0 1 129.415 55.313 L 129.415 53.164 A 43.829 43.829 0 0 1 129.612 48.888 Q 129.82 46.765 130.25 44.947 A 22.309 22.309 0 0 1 130.704 43.301 Q 131.993 39.258 134.982 36.133 A 27.736 27.736 0 0 1 137.767 33.613 Q 140.065 31.786 143.126 30 A 31.808 31.808 0 0 1 137.897 26.294 A 25.168 25.168 0 0 1 133.927 21.895 Q 130.587 17.148 130.587 11.406 L 130.587 7.617 A 5.278 5.278 0 0 1 130.621 6.993 Q 130.702 6.322 130.968 5.913 A 1.59 1.59 0 0 1 130.978 5.898 Q 132.418 3.786 134.802 1.49 A 45.419 45.419 0 0 1 135.899 0.469 Q 136.476 0.007 136.939 0 A 0.944 0.944 0 0 1 136.954 0 Q 137.423 0 137.931 0.469 A 35.008 35.008 0 0 1 139.33 1.741 Q 140.032 2.418 140.611 3.063 A 20.434 20.434 0 0 1 140.821 3.301 A 32.494 32.494 0 0 1 142.041 4.786 A 25.419 25.419 0 0 1 142.853 5.898 A 2.279 2.279 0 0 1 143.109 6.496 Q 143.243 6.976 143.243 7.617 L 143.243 11.406 A 9.085 9.085 0 0 0 143.853 14.592 Q 144.299 15.788 145.071 17.028 A 18.571 18.571 0 0 0 145.841 18.164 A 18.583 18.583 0 0 0 150.204 22.394 A 23.817 23.817 0 0 0 152.97 24.063 A 21.004 21.004 0 0 0 155.926 22.244 Q 157.475 21.091 158.543 19.761 A 11.302 11.302 0 0 0 159.415 18.516 Q 161.368 15.273 161.368 11.406 L 161.368 7.617 A 5.278 5.278 0 0 1 161.403 6.993 Q 161.483 6.322 161.75 5.913 A 1.59 1.59 0 0 1 161.759 5.898 A 23.405 23.405 0 0 1 163.356 3.777 Q 164.692 2.185 166.524 0.469 A 3.669 3.669 0 0 1 166.805 0.264 Q 167.107 0.066 167.348 0.017 A 0.761 0.761 0 0 1 167.501 0 Q 167.97 0 168.478 0.469 A 37.164 37.164 0 0 1 169.952 1.875 Q 170.676 2.606 171.271 3.301 Q 172.423 4.648 173.243 5.898 A 2.279 2.279 0 0 1 173.5 6.496 Q 173.634 6.976 173.634 7.617 L 173.634 11.406 A 21.944 21.944 0 0 1 173.074 16.483 A 16.374 16.374 0 0 1 170.489 22.266 Q 167.345 26.68 162.462 29.453 Q 166.897 32.084 169.74 35.094 A 23.923 23.923 0 0 1 169.962 35.332 A 19.651 19.651 0 0 1 174.22 42.754 A 26.351 26.351 0 0 1 175.142 46.772 Q 175.587 49.666 175.587 53.164 L 175.587 55.313 A 4.407 4.407 0 0 1 175.555 55.869 Q 175.478 56.47 175.219 56.802 A 1.074 1.074 0 0 1 175.099 56.934 A 1.39 1.39 0 0 1 174.659 57.198 Q 174.254 57.358 173.639 57.379 A 5.66 5.66 0 0 1 173.439 57.383 L 165.118 57.383 A 4.819 4.819 0 0 1 164.544 57.351 Q 163.946 57.279 163.598 57.043 A 1.188 1.188 0 0 1 163.458 56.934 A 1.245 1.245 0 0 1 163.161 56.495 Q 162.996 56.106 162.973 55.507 A 5.194 5.194 0 0 1 162.97 55.313 L 162.97 53.164 Q 162.97 48.984 162.208 45.898 A 12.75 12.75 0 0 0 159.218 40.351 A 14.795 14.795 0 0 0 159.2 40.332 Q 157.568 38.53 154.792 36.779 A 38.623 38.623 0 0 0 152.54 35.469 Q 146.564 38.75 144.122 42.852 Q 141.681 46.953 141.681 53.164 Z M 48.126 34.297 L 48.126 53.555 Q 47.189 54.219 44.786 55.371 A 18.164 18.164 0 0 1 43.107 56.067 Q 41.197 56.757 38.535 57.342 A 57.821 57.821 0 0 1 38.165 57.422 A 35.776 35.776 0 0 1 34.699 57.969 Q 31.559 58.32 27.579 58.32 Q 19.024 58.32 12.833 55.488 A 19.855 19.855 0 0 1 3.373 46.408 A 24.531 24.531 0 0 1 3.321 46.309 A 25.885 25.885 0 0 1 1.172 40.471 Q 0.001 35.708 0.001 29.492 A 43.625 43.625 0 0 1 0.771 21.028 Q 2.347 13.067 7.149 7.988 A 23.407 23.407 0 0 1 19.294 1.243 A 35.113 35.113 0 0 1 27.071 0.43 A 52.158 52.158 0 0 1 30.64 0.544 Q 34.271 0.794 36.758 1.589 A 15.624 15.624 0 0 1 36.798 1.602 Q 40.431 2.773 42.306 4.336 A 22.68 22.68 0 0 1 43.319 5.229 Q 44.401 6.246 44.923 7.07 A 5.416 5.416 0 0 1 45.105 7.377 Q 45.185 7.524 45.244 7.657 A 2.52 2.52 0 0 1 45.314 7.832 Q 45.411 8.107 45.454 8.636 A 8.768 8.768 0 0 1 45.47 8.867 A 8.575 8.575 0 0 1 45.516 9.366 Q 45.56 10.045 45.543 11.026 A 38.705 38.705 0 0 1 45.528 11.602 A 29.084 29.084 0 0 1 45.443 13.092 Q 45.367 13.997 45.235 14.766 A 4.042 4.042 0 0 1 45.145 15.159 Q 45.033 15.548 44.863 15.763 A 0.803 0.803 0 0 1 44.728 15.898 A 0.684 0.684 0 0 1 44.607 15.992 Q 44.478 16.073 44.274 16.142 A 2.877 2.877 0 0 1 44.181 16.172 Q 43.79 16.289 43.009 16.289 A 38.258 38.258 0 0 1 42.014 16.275 Q 41.136 16.252 40.099 16.191 Q 38.439 16.094 37.657 15.977 Q 36.852 15.842 36.436 15.607 A 1.41 1.41 0 0 1 36.31 15.527 A 2.778 2.778 0 0 1 36.007 15.274 Q 35.861 15.134 35.707 14.955 A 6.707 6.707 0 0 1 35.431 14.609 Q 34.962 13.984 34.142 13.145 Q 33.321 12.305 31.661 11.641 Q 30.035 10.99 27.191 10.977 A 25.494 25.494 0 0 0 27.071 10.977 A 14.257 14.257 0 0 0 22.47 11.685 A 11.687 11.687 0 0 0 16.954 15.645 A 15.356 15.356 0 0 0 14.444 20.51 Q 13.754 22.666 13.474 25.277 A 35.519 35.519 0 0 0 13.282 29.063 Q 13.282 35.001 14.876 39.092 A 14.863 14.863 0 0 0 17.091 43.008 A 12.365 12.365 0 0 0 25.03 47.537 A 18.459 18.459 0 0 0 28.048 47.773 Q 30.895 47.773 32.554 47.442 A 7.861 7.861 0 0 0 33.341 47.246 A 40.686 40.686 0 0 0 34.025 47.028 Q 35.143 46.659 35.509 46.445 L 35.509 34.297 A 5.278 5.278 0 0 1 35.543 33.672 Q 35.623 33.002 35.89 32.592 A 1.59 1.59 0 0 1 35.899 32.578 Q 37.34 30.466 39.724 28.17 A 45.419 45.419 0 0 1 40.821 27.148 A 3.326 3.326 0 0 1 41.13 26.927 Q 41.465 26.717 41.741 26.685 A 0.841 0.841 0 0 1 41.837 26.68 Q 42.306 26.68 42.814 27.148 A 35.008 35.008 0 0 1 44.213 28.421 Q 44.915 29.097 45.494 29.743 A 20.434 20.434 0 0 1 45.704 29.98 A 32.494 32.494 0 0 1 46.924 31.466 A 25.419 25.419 0 0 1 47.735 32.578 A 2.279 2.279 0 0 1 47.992 33.176 Q 48.126 33.656 48.126 34.297 Z M 504.689 36.211 L 504.689 7.617 A 5.278 5.278 0 0 1 504.723 6.993 Q 504.803 6.322 505.07 5.913 A 1.59 1.59 0 0 1 505.079 5.898 Q 506.519 3.786 508.904 1.49 A 45.419 45.419 0 0 1 510.001 0.469 A 3.326 3.326 0 0 1 510.31 0.247 Q 510.645 0.037 510.921 0.006 A 0.841 0.841 0 0 1 511.017 0 Q 511.485 0 511.993 0.469 A 35.008 35.008 0 0 1 513.392 1.741 Q 514.095 2.418 514.674 3.063 A 20.434 20.434 0 0 1 514.884 3.301 A 32.494 32.494 0 0 1 516.103 4.786 A 25.419 25.419 0 0 1 516.915 5.898 A 2.279 2.279 0 0 1 517.172 6.496 Q 517.306 6.976 517.306 7.617 L 517.306 34.258 A 42.516 42.516 0 0 0 517.4 37.188 Q 517.603 40.114 518.242 42.06 A 10.427 10.427 0 0 0 518.497 42.754 A 9.041 9.041 0 0 0 519.527 44.641 A 6.218 6.218 0 0 0 522.032 46.719 A 11.141 11.141 0 0 0 524.448 47.471 Q 525.974 47.773 527.814 47.773 A 19.417 19.417 0 0 0 530.285 47.625 Q 531.547 47.463 532.612 47.123 A 9.964 9.964 0 0 0 533.673 46.719 A 6.217 6.217 0 0 0 536.292 44.466 A 9.127 9.127 0 0 0 537.189 42.754 Q 538.247 40.125 538.349 35.313 A 49.64 49.64 0 0 0 538.36 34.258 L 538.36 7.617 A 5.278 5.278 0 0 1 538.395 6.993 Q 538.475 6.322 538.742 5.913 A 1.59 1.59 0 0 1 538.751 5.898 Q 540.191 3.786 542.576 1.49 A 45.419 45.419 0 0 1 543.673 0.469 A 3.326 3.326 0 0 1 543.982 0.247 Q 544.317 0.037 544.593 0.006 A 0.841 0.841 0 0 1 544.689 0 Q 545.157 0 545.665 0.469 A 35.008 35.008 0 0 1 547.064 1.741 Q 547.767 2.418 548.346 3.063 A 20.434 20.434 0 0 1 548.556 3.301 A 32.494 32.494 0 0 1 549.775 4.786 A 25.419 25.419 0 0 1 550.587 5.898 A 2.279 2.279 0 0 1 550.843 6.496 Q 550.978 6.976 550.978 7.617 L 550.978 36.211 Q 550.978 44.883 548.009 49.688 Q 545.04 54.492 539.825 56.406 A 30.31 30.31 0 0 1 533.648 57.927 A 41.335 41.335 0 0 1 527.814 58.32 A 47.032 47.032 0 0 1 522.205 58.004 Q 518.367 57.543 515.294 56.406 Q 510.118 54.492 507.403 49.688 A 17.966 17.966 0 0 1 505.749 45.54 Q 505.186 43.463 504.922 40.96 A 45.38 45.38 0 0 1 504.689 36.211 Z M 788.907 36.211 L 788.907 7.617 A 5.278 5.278 0 0 1 788.942 6.993 Q 789.022 6.322 789.289 5.913 A 1.59 1.59 0 0 1 789.298 5.898 Q 790.738 3.786 793.122 1.49 A 45.419 45.419 0 0 1 794.22 0.469 A 3.326 3.326 0 0 1 794.529 0.247 Q 794.864 0.037 795.14 0.006 A 0.841 0.841 0 0 1 795.235 0 Q 795.704 0 796.212 0.469 A 35.008 35.008 0 0 1 797.611 1.741 Q 798.313 2.418 798.892 3.063 A 20.434 20.434 0 0 1 799.103 3.301 A 32.494 32.494 0 0 1 800.322 4.786 A 25.419 25.419 0 0 1 801.134 5.898 A 2.279 2.279 0 0 1 801.39 6.496 Q 801.524 6.976 801.524 7.617 L 801.524 34.258 A 42.516 42.516 0 0 0 801.619 37.188 Q 801.822 40.114 802.461 42.06 A 10.427 10.427 0 0 0 802.716 42.754 A 9.041 9.041 0 0 0 803.746 44.641 A 6.218 6.218 0 0 0 806.251 46.719 A 11.141 11.141 0 0 0 808.666 47.471 Q 810.193 47.773 812.032 47.773 A 19.417 19.417 0 0 0 814.504 47.625 Q 815.766 47.463 816.83 47.123 A 9.964 9.964 0 0 0 817.892 46.719 A 6.217 6.217 0 0 0 820.511 44.466 A 9.127 9.127 0 0 0 821.407 42.754 Q 822.466 40.125 822.568 35.313 A 49.64 49.64 0 0 0 822.579 34.258 L 822.579 7.617 A 5.278 5.278 0 0 1 822.614 6.993 Q 822.694 6.322 822.96 5.913 A 1.59 1.59 0 0 1 822.97 5.898 Q 824.41 3.786 826.794 1.49 A 45.419 45.419 0 0 1 827.892 0.469 A 3.326 3.326 0 0 1 828.2 0.247 Q 828.536 0.037 828.812 0.006 A 0.841 0.841 0 0 1 828.907 0 Q 829.376 0 829.884 0.469 A 35.008 35.008 0 0 1 831.283 1.741 Q 831.985 2.418 832.564 3.063 A 20.434 20.434 0 0 1 832.774 3.301 A 32.494 32.494 0 0 1 833.994 4.786 A 25.419 25.419 0 0 1 834.806 5.898 A 2.279 2.279 0 0 1 835.062 6.496 Q 835.196 6.976 835.196 7.617 L 835.196 36.211 Q 835.196 44.883 832.228 49.688 Q 829.259 54.492 824.044 56.406 A 30.31 30.31 0 0 1 817.867 57.927 A 41.335 41.335 0 0 1 812.032 58.32 A 47.032 47.032 0 0 1 806.423 58.004 Q 802.586 57.543 799.513 56.406 Q 794.337 54.492 791.622 49.688 A 17.966 17.966 0 0 1 789.968 45.54 Q 789.404 43.463 789.14 40.96 A 45.38 45.38 0 0 1 788.907 36.211 Z M 854.161 57.422 A 20.655 20.655 0 0 0 856.123 57.855 Q 858.813 58.32 862.384 58.32 A 33.381 33.381 0 0 0 866.717 58.048 A 25.865 25.865 0 0 0 873.146 56.387 A 19.702 19.702 0 0 0 873.731 56.137 A 16.357 16.357 0 0 0 880.646 50.508 A 13.541 13.541 0 0 0 880.748 50.359 Q 882.323 48.037 882.962 45.026 A 21.364 21.364 0 0 0 883.399 40.586 Q 883.399 37.883 882.849 35.774 A 11.266 11.266 0 0 0 881.661 32.852 A 12.47 12.47 0 0 0 879.845 30.49 A 14.516 14.516 0 0 0 876.642 28.047 A 33.939 33.939 0 0 0 875.935 27.654 Q 872.878 26.003 868.79 24.57 A 98.939 98.939 0 0 1 867.031 23.924 Q 864.293 22.887 862.442 21.975 A 21.689 21.689 0 0 1 860.782 21.074 A 6.548 6.548 0 0 1 859.903 20.44 A 4.6 4.6 0 0 1 858.243 16.797 Q 858.243 14.492 859.962 12.637 A 4.283 4.283 0 0 1 860.106 12.488 Q 861.366 11.254 863.771 10.912 A 14.337 14.337 0 0 1 865.782 10.781 A 16.431 16.431 0 0 1 866.302 10.789 Q 868.872 10.871 870.099 11.777 Q 871.446 12.773 872.071 13.516 A 12.163 12.163 0 0 0 872.185 13.628 Q 872.414 13.851 872.593 14 A 3.17 3.17 0 0 0 872.774 14.141 Q 872.982 14.289 873.503 14.437 A 8.837 8.837 0 0 0 873.868 14.531 Q 875.939 15 879.728 14.922 A 3.274 3.274 0 0 0 879.829 14.92 Q 880.146 14.911 880.362 14.838 A 0.852 0.852 0 0 0 880.587 14.727 A 0.716 0.716 0 0 0 880.604 14.713 Q 880.816 14.544 880.935 14.188 A 2.423 2.423 0 0 0 881.017 13.867 Q 881.141 12.871 881.211 11.985 A 28.604 28.604 0 0 0 881.29 10.508 A 27.574 27.574 0 0 0 881.3 9.783 Q 881.3 9.351 881.285 8.945 A 18.708 18.708 0 0 0 881.212 7.813 A 4.106 4.106 0 0 0 881.18 7.549 Q 881.141 7.299 881.075 7.129 Q 880.978 6.875 880.665 6.367 Q 880.157 5.508 878.439 4.121 A 10.797 10.797 0 0 0 877.316 3.334 Q 876.542 2.858 875.585 2.419 A 24.715 24.715 0 0 0 873.614 1.621 A 15.568 15.568 0 0 0 871.98 1.139 Q 870.628 0.816 869.035 0.658 A 33.111 33.111 0 0 0 865.782 0.508 A 34.511 34.511 0 0 0 860.693 0.867 A 25.517 25.517 0 0 0 854.962 2.383 A 19.614 19.614 0 0 0 853.141 3.219 A 15.662 15.662 0 0 0 847.618 7.93 A 13.526 13.526 0 0 0 845.417 12.85 A 18.592 18.592 0 0 0 844.962 17.07 A 24.637 24.637 0 0 0 845.006 18.553 Q 845.34 24.1 848.243 27.383 A 15.641 15.641 0 0 0 851.09 29.862 Q 852.671 30.954 854.712 31.913 A 40.031 40.031 0 0 0 858.946 33.594 A 80.933 80.933 0 0 1 859.796 33.879 Q 862.331 34.749 864.145 35.57 A 23.437 23.437 0 0 1 865.86 36.426 A 20.282 20.282 0 0 1 866.096 36.559 Q 867.53 37.382 868.403 38.205 A 5.635 5.635 0 0 1 869.2 39.121 A 6.064 6.064 0 0 1 869.318 39.301 A 4.963 4.963 0 0 1 870.118 41.992 Q 870.118 44.844 868.165 46.445 Q 866.792 47.571 864.492 47.906 A 14.689 14.689 0 0 1 862.384 48.047 A 23.741 23.741 0 0 1 861.864 48.041 Q 858.273 47.963 856.485 46.777 Q 855.11 45.865 854.319 45.184 A 7.407 7.407 0 0 1 853.79 44.688 A 12.755 12.755 0 0 0 853.656 44.548 Q 853.038 43.915 852.579 43.633 Q 852.246 43.428 851.778 43.357 A 3.542 3.542 0 0 0 851.251 43.32 Q 850.665 43.32 849.497 43.441 A 58.193 58.193 0 0 0 848.653 43.535 Q 846.837 43.75 845.704 44.023 Q 845.323 44.119 845.073 44.272 A 1.147 1.147 0 0 0 844.806 44.492 A 0.73 0.73 0 0 0 844.718 44.621 Q 844.612 44.819 844.564 45.144 A 3.602 3.602 0 0 0 844.532 45.469 Q 844.455 46.579 844.497 47.509 A 11.794 11.794 0 0 0 844.571 48.418 A 54.108 54.108 0 0 0 844.578 48.473 Q 844.682 49.311 844.786 49.933 A 17.33 17.33 0 0 0 844.884 50.469 A 3.875 3.875 0 0 0 844.943 50.719 A 3.29 3.29 0 0 0 845.274 51.523 A 13.283 13.283 0 0 0 845.491 51.88 A 16.142 16.142 0 0 0 845.899 52.5 Q 846.954 53.828 848.927 55.176 A 11.737 11.737 0 0 0 849.923 55.783 Q 851.665 56.734 854.161 57.422 Z M 343.478 47.813 A 22.53 22.53 0 0 0 345.14 47.755 Q 346.765 47.635 347.857 47.26 A 6.28 6.28 0 0 0 347.95 47.227 Q 349.215 46.77 350.039 46.146 A 4.868 4.868 0 0 0 350.47 45.781 A 16.82 16.82 0 0 0 351.49 44.72 A 13.73 13.73 0 0 0 352.032 44.063 A 22.149 22.149 0 0 1 352.331 43.696 Q 352.76 43.184 353.067 42.891 A 1.86 1.86 0 0 1 353.543 42.567 Q 353.837 42.424 354.22 42.344 A 3.594 3.594 0 0 1 354.619 42.247 Q 355.224 42.132 356.232 42.09 Q 357.618 42.031 359.005 42.031 A 38.888 38.888 0 0 1 359.641 42.036 Q 360.487 42.05 360.9 42.104 A 3.357 3.357 0 0 1 360.939 42.109 A 4.134 4.134 0 0 1 361.317 42.144 Q 361.693 42.197 361.92 42.318 A 0.816 0.816 0 0 1 362.071 42.422 A 0.759 0.759 0 0 1 362.24 42.647 Q 362.408 42.969 362.462 43.594 A 27.255 27.255 0 0 1 362.536 44.597 Q 362.568 45.154 362.584 45.783 A 52.058 52.058 0 0 1 362.599 46.563 Q 362.616 48.088 362.556 49.244 A 26.331 26.331 0 0 1 362.54 49.531 Q 362.508 49.849 362.438 50.09 A 1.944 1.944 0 0 1 362.403 50.195 A 2.273 2.273 0 0 1 362.341 50.349 Q 362.265 50.521 362.134 50.763 A 12.646 12.646 0 0 1 361.993 51.016 A 4.994 4.994 0 0 1 361.752 51.364 Q 361.461 51.75 360.982 52.28 A 29.524 29.524 0 0 1 360.47 52.832 Q 359.337 54.023 357.149 55.293 Q 355.449 56.28 352.981 57.042 A 33.773 33.773 0 0 1 351.505 57.461 Q 348.048 58.359 343.009 58.359 A 37.064 37.064 0 0 1 335.929 57.704 A 32.232 32.232 0 0 1 332.931 56.973 A 20.445 20.445 0 0 1 324.708 52.305 A 18.955 18.955 0 0 1 321.225 47.884 A 26.269 26.269 0 0 1 319.2 43.438 Q 317.667 39.095 317.325 33.077 A 63.345 63.345 0 0 1 317.228 29.492 Q 317.228 21.23 319.773 15.174 A 26.208 26.208 0 0 1 320.45 13.691 A 23.535 23.535 0 0 1 325.771 6.562 A 22.158 22.158 0 0 1 329.61 3.789 A 25.34 25.34 0 0 1 338.116 0.83 A 33.835 33.835 0 0 1 343.673 0.391 A 45.929 45.929 0 0 1 347.018 0.505 Q 348.737 0.631 350.191 0.895 A 18.629 18.629 0 0 1 352.833 1.562 A 23.601 23.601 0 0 1 354.968 2.396 Q 355.991 2.858 356.807 3.371 A 9.925 9.925 0 0 1 358.087 4.316 A 23.812 23.812 0 0 1 359.096 5.254 Q 360.006 6.154 360.512 6.897 A 6.154 6.154 0 0 1 360.626 7.07 A 5.416 5.416 0 0 1 360.808 7.377 Q 360.888 7.524 360.947 7.657 A 2.52 2.52 0 0 1 361.017 7.832 Q 361.114 8.107 361.157 8.636 A 8.768 8.768 0 0 1 361.173 8.867 A 8.575 8.575 0 0 1 361.219 9.366 Q 361.264 10.045 361.246 11.026 A 38.705 38.705 0 0 1 361.232 11.602 A 29.084 29.084 0 0 1 361.147 13.092 Q 361.07 13.997 360.939 14.766 A 4.042 4.042 0 0 1 360.848 15.159 Q 360.736 15.548 360.566 15.763 A 0.803 0.803 0 0 1 360.431 15.898 A 0.684 0.684 0 0 1 360.31 15.992 Q 360.181 16.073 359.977 16.142 A 2.877 2.877 0 0 1 359.884 16.172 Q 359.493 16.289 358.712 16.289 Q 357.462 16.289 355.899 16.191 A 59.202 59.202 0 0 1 355.167 16.141 Q 354.142 16.064 353.556 15.977 A 6.644 6.644 0 0 1 353.069 15.878 Q 352.593 15.761 352.299 15.596 A 1.527 1.527 0 0 1 352.189 15.527 A 2.452 2.452 0 0 1 351.853 15.248 Q 351.591 14.99 351.329 14.609 Q 350.694 13.692 349.23 12.52 A 23.607 23.607 0 0 0 348.907 12.266 Q 347.189 10.938 343.243 10.938 A 11.663 11.663 0 0 0 337.76 12.217 A 12.09 12.09 0 0 0 334.103 15.215 Q 330.509 19.492 330.509 29.063 Q 330.509 38.473 334.184 43.086 A 11.808 11.808 0 0 0 334.278 43.203 A 13.545 13.545 0 0 0 337.474 46.099 A 10.953 10.953 0 0 0 343.478 47.813 Z M 416.095 57.383 L 406.642 57.383 A 2.657 2.657 0 0 1 405.889 57.285 Q 405.05 57.037 404.815 56.158 A 2.84 2.84 0 0 1 404.728 55.547 A 47.371 47.371 0 0 0 404.457 52.002 Q 404.103 48.828 403.321 44.922 L 381.993 44.922 A 101.124 101.124 0 0 0 381.305 49.272 Q 380.841 52.715 380.743 55.547 Q 380.68 57.042 379.398 57.32 A 3.064 3.064 0 0 1 378.751 57.383 L 369.493 57.383 A 1.985 1.985 0 0 1 368.923 57.304 A 1.597 1.597 0 0 1 368.321 56.973 A 1.119 1.119 0 0 1 368.019 56.525 Q 367.871 56.145 367.891 55.566 A 4.244 4.244 0 0 1 367.892 55.547 Q 368.06 51.821 368.876 47.215 A 94.873 94.873 0 0 1 369.161 45.684 A 127.044 127.044 0 0 1 371.135 37.162 A 146.121 146.121 0 0 1 371.954 34.219 Q 373.673 28.281 375.782 22.598 Q 377.892 16.914 380.157 12.188 Q 381.892 8.569 383.558 5.957 A 34.684 34.684 0 0 1 384.571 4.453 A 10.517 10.517 0 0 1 385.477 3.333 Q 385.997 2.779 386.543 2.389 A 5.654 5.654 0 0 1 386.974 2.109 A 5.183 5.183 0 0 1 388.493 1.53 Q 389.146 1.388 389.901 1.37 A 9.21 9.21 0 0 1 390.118 1.367 L 395.743 1.367 Q 397.657 1.367 398.946 2.109 Q 400.235 2.852 401.368 4.453 Q 403.008 6.749 404.704 10.057 A 75.298 75.298 0 0 1 405.763 12.207 A 122.12 122.12 0 0 1 408.483 18.415 A 150.682 150.682 0 0 1 410.118 22.617 A 158.548 158.548 0 0 1 413.927 34.199 A 148.946 148.946 0 0 1 416.057 42.474 A 128.34 128.34 0 0 1 416.72 45.586 A 77.343 77.343 0 0 1 417.497 50.139 Q 417.882 52.917 417.97 55.313 A 4.346 4.346 0 0 1 417.971 55.394 Q 417.971 57.097 416.595 57.342 A 2.86 2.86 0 0 1 416.095 57.383 Z M 494.103 57.383 L 484.649 57.383 A 2.657 2.657 0 0 1 483.897 57.285 Q 483.058 57.037 482.823 56.158 A 2.84 2.84 0 0 1 482.735 55.547 A 47.371 47.371 0 0 0 482.464 52.002 Q 482.11 48.828 481.329 44.922 L 460.001 44.922 A 101.124 101.124 0 0 0 459.313 49.272 Q 458.849 52.715 458.751 55.547 Q 458.687 57.042 457.406 57.32 A 3.064 3.064 0 0 1 456.759 57.383 L 447.501 57.383 A 1.985 1.985 0 0 1 446.931 57.304 A 1.597 1.597 0 0 1 446.329 56.973 A 1.119 1.119 0 0 1 446.026 56.525 Q 445.879 56.145 445.899 55.566 A 4.244 4.244 0 0 1 445.899 55.547 Q 446.067 51.821 446.884 47.215 A 94.873 94.873 0 0 1 447.169 45.684 A 127.044 127.044 0 0 1 449.143 37.162 A 146.121 146.121 0 0 1 449.962 34.219 Q 451.681 28.281 453.79 22.598 Q 455.899 16.914 458.165 12.188 Q 459.9 8.569 461.566 5.957 A 34.684 34.684 0 0 1 462.579 4.453 A 10.517 10.517 0 0 1 463.485 3.333 Q 464.005 2.779 464.55 2.389 A 5.654 5.654 0 0 1 464.982 2.109 A 5.183 5.183 0 0 1 466.501 1.53 Q 467.154 1.388 467.908 1.37 A 9.21 9.21 0 0 1 468.126 1.367 L 473.751 1.367 Q 475.665 1.367 476.954 2.109 Q 478.243 2.852 479.376 4.453 Q 481.016 6.749 482.712 10.057 A 75.298 75.298 0 0 1 483.771 12.207 A 122.12 122.12 0 0 1 486.491 18.415 A 150.682 150.682 0 0 1 488.126 22.617 A 158.548 158.548 0 0 1 491.935 34.199 A 148.946 148.946 0 0 1 494.064 42.474 A 128.34 128.34 0 0 1 494.728 45.586 A 77.343 77.343 0 0 1 495.505 50.139 Q 495.89 52.917 495.978 55.313 A 4.346 4.346 0 0 1 495.978 55.394 Q 495.978 57.097 494.603 57.342 A 2.86 2.86 0 0 1 494.103 57.383 Z M 778.321 57.383 L 768.868 57.383 A 2.657 2.657 0 0 1 768.115 57.285 Q 767.277 57.037 767.042 56.158 A 2.84 2.84 0 0 1 766.954 55.547 A 47.371 47.371 0 0 0 766.683 52.002 Q 766.329 48.828 765.548 44.922 L 744.22 44.922 A 101.124 101.124 0 0 0 743.531 49.272 Q 743.067 52.715 742.97 55.547 Q 742.906 57.042 741.624 57.32 A 3.064 3.064 0 0 1 740.978 57.383 L 731.72 57.383 A 1.985 1.985 0 0 1 731.149 57.304 A 1.597 1.597 0 0 1 730.548 56.973 A 1.119 1.119 0 0 1 730.245 56.525 Q 730.098 56.145 730.118 55.566 A 4.244 4.244 0 0 1 730.118 55.547 Q 730.286 51.821 731.103 47.215 A 94.873 94.873 0 0 1 731.388 45.684 A 127.044 127.044 0 0 1 733.362 37.162 A 146.121 146.121 0 0 1 734.181 34.219 Q 735.899 28.281 738.009 22.598 Q 740.118 16.914 742.384 12.188 Q 744.118 8.569 745.784 5.957 A 34.684 34.684 0 0 1 746.798 4.453 A 10.517 10.517 0 0 1 747.704 3.333 Q 748.223 2.779 748.769 2.389 A 5.654 5.654 0 0 1 749.2 2.109 A 5.183 5.183 0 0 1 750.72 1.53 Q 751.373 1.388 752.127 1.37 A 9.21 9.21 0 0 1 752.345 1.367 L 757.97 1.367 Q 759.884 1.367 761.173 2.109 Q 762.462 2.852 763.595 4.453 Q 765.234 6.749 766.931 10.057 A 75.298 75.298 0 0 1 767.989 12.207 A 122.12 122.12 0 0 1 770.71 18.415 A 150.682 150.682 0 0 1 772.345 22.617 A 158.548 158.548 0 0 1 776.153 34.199 A 148.946 148.946 0 0 1 778.283 42.474 A 128.34 128.34 0 0 1 778.946 45.586 A 77.343 77.343 0 0 1 779.724 50.139 Q 780.108 52.917 780.196 55.313 A 4.346 4.346 0 0 1 780.197 55.394 Q 780.197 57.097 778.822 57.342 A 2.86 2.86 0 0 1 778.321 57.383 Z M 108.009 11.641 L 108.009 55.313 A 4.407 4.407 0 0 1 107.976 55.869 Q 107.9 56.47 107.641 56.802 A 1.074 1.074 0 0 1 107.521 56.934 A 1.39 1.39 0 0 1 107.081 57.198 Q 106.675 57.358 106.06 57.379 A 5.66 5.66 0 0 1 105.86 57.383 L 97.54 57.383 A 4.819 4.819 0 0 1 96.966 57.351 Q 96.368 57.279 96.019 57.043 A 1.188 1.188 0 0 1 95.88 56.934 A 1.245 1.245 0 0 1 95.582 56.495 Q 95.418 56.106 95.395 55.507 A 5.194 5.194 0 0 1 95.392 55.313 L 95.392 11.641 L 83.751 11.641 Q 82.868 11.641 82.4 11.363 A 1.263 1.263 0 0 1 82.345 11.328 A 18.308 18.308 0 0 1 81.184 10.451 A 23.326 23.326 0 0 1 80.255 9.648 Q 79.181 8.672 77.931 7.305 A 3.396 3.396 0 0 1 77.76 7.063 Q 77.603 6.818 77.558 6.628 A 0.624 0.624 0 0 1 77.54 6.484 Q 77.54 6.133 77.931 5.703 A 44.228 44.228 0 0 1 78.991 4.582 Q 79.486 4.077 79.949 3.642 A 26.117 26.117 0 0 1 80.255 3.359 Q 81.329 2.383 82.345 1.68 Q 82.892 1.367 83.751 1.367 L 119.689 1.367 Q 120.572 1.367 121.039 1.645 A 1.263 1.263 0 0 1 121.095 1.68 A 19.632 19.632 0 0 1 122.262 2.557 A 25.38 25.38 0 0 1 123.204 3.359 Q 124.298 4.336 125.509 5.703 A 3.396 3.396 0 0 1 125.68 5.945 Q 125.836 6.19 125.881 6.38 A 0.624 0.624 0 0 1 125.899 6.523 Q 125.899 6.875 125.509 7.305 A 33.504 33.504 0 0 1 124.363 8.538 Q 123.805 9.107 123.275 9.585 A 20.36 20.36 0 0 1 123.204 9.648 A 24.983 24.983 0 0 1 122.13 10.557 A 19.314 19.314 0 0 1 121.095 11.328 Q 120.548 11.641 119.689 11.641 L 108.009 11.641 Z M 270.704 11.641 L 270.704 55.313 A 4.407 4.407 0 0 1 270.672 55.869 Q 270.595 56.47 270.337 56.802 A 1.074 1.074 0 0 1 270.216 56.934 A 1.39 1.39 0 0 1 269.777 57.198 Q 269.371 57.358 268.756 57.379 A 5.66 5.66 0 0 1 268.556 57.383 L 260.235 57.383 A 4.819 4.819 0 0 1 259.661 57.351 Q 259.063 57.279 258.715 57.043 A 1.188 1.188 0 0 1 258.575 56.934 A 1.245 1.245 0 0 1 258.278 56.495 Q 258.113 56.106 258.091 55.507 A 5.194 5.194 0 0 1 258.087 55.313 L 258.087 11.641 L 246.446 11.641 Q 245.563 11.641 245.096 11.363 A 1.263 1.263 0 0 1 245.04 11.328 A 18.308 18.308 0 0 1 243.879 10.451 A 23.326 23.326 0 0 1 242.95 9.648 Q 241.876 8.672 240.626 7.305 A 3.396 3.396 0 0 1 240.455 7.063 Q 240.298 6.818 240.254 6.628 A 0.624 0.624 0 0 1 240.235 6.484 Q 240.235 6.133 240.626 5.703 A 44.228 44.228 0 0 1 241.686 4.582 Q 242.181 4.077 242.645 3.642 A 26.117 26.117 0 0 1 242.95 3.359 Q 244.024 2.383 245.04 1.68 Q 245.587 1.367 246.446 1.367 L 282.384 1.367 Q 283.267 1.367 283.734 1.645 A 1.263 1.263 0 0 1 283.79 1.68 A 19.632 19.632 0 0 1 284.957 2.557 A 25.38 25.38 0 0 1 285.899 3.359 Q 286.993 4.336 288.204 5.703 A 3.396 3.396 0 0 1 288.375 5.945 Q 288.532 6.19 288.577 6.38 A 0.624 0.624 0 0 1 288.595 6.523 Q 288.595 6.875 288.204 7.305 A 33.504 33.504 0 0 1 287.059 8.538 Q 286.501 9.107 285.97 9.585 A 20.36 20.36 0 0 1 285.899 9.648 A 24.983 24.983 0 0 1 284.825 10.557 A 19.314 19.314 0 0 1 283.79 11.328 Q 283.243 11.641 282.384 11.641 L 270.704 11.641 Z M 587.228 11.641 L 587.228 55.313 A 4.407 4.407 0 0 1 587.195 55.869 Q 587.118 56.47 586.86 56.802 A 1.074 1.074 0 0 1 586.739 56.934 A 1.39 1.39 0 0 1 586.3 57.198 Q 585.894 57.358 585.279 57.379 A 5.66 5.66 0 0 1 585.079 57.383 L 576.759 57.383 A 4.819 4.819 0 0 1 576.185 57.351 Q 575.587 57.279 575.238 57.043 A 1.188 1.188 0 0 1 575.099 56.934 A 1.245 1.245 0 0 1 574.801 56.495 Q 574.636 56.106 574.614 55.507 A 5.194 5.194 0 0 1 574.61 55.313 L 574.61 11.641 L 562.97 11.641 Q 562.086 11.641 561.619 11.363 A 1.263 1.263 0 0 1 561.564 11.328 A 18.308 18.308 0 0 1 560.402 10.451 A 23.326 23.326 0 0 1 559.474 9.648 Q 558.399 8.672 557.149 7.305 A 3.396 3.396 0 0 1 556.979 7.063 Q 556.822 6.818 556.777 6.628 A 0.624 0.624 0 0 1 556.759 6.484 Q 556.759 6.133 557.149 5.703 A 44.228 44.228 0 0 1 558.21 4.582 Q 558.704 4.077 559.168 3.642 A 26.117 26.117 0 0 1 559.474 3.359 Q 560.548 2.383 561.564 1.68 Q 562.11 1.367 562.97 1.367 L 598.907 1.367 Q 599.791 1.367 600.258 1.645 A 1.263 1.263 0 0 1 600.314 1.68 A 19.632 19.632 0 0 1 601.481 2.557 A 25.38 25.38 0 0 1 602.423 3.359 Q 603.517 4.336 604.728 5.703 A 3.396 3.396 0 0 1 604.898 5.945 Q 605.055 6.19 605.1 6.38 A 0.624 0.624 0 0 1 605.118 6.523 Q 605.118 6.875 604.728 7.305 A 33.504 33.504 0 0 1 603.582 8.538 Q 603.024 9.107 602.494 9.585 A 20.36 20.36 0 0 1 602.423 9.648 A 24.983 24.983 0 0 1 601.349 10.557 A 19.314 19.314 0 0 1 600.314 11.328 Q 599.767 11.641 598.907 11.641 L 587.228 11.641 Z M 202.278 57.684 A 35.594 35.594 0 0 0 209.376 58.359 A 37.879 37.879 0 0 0 216.085 57.793 A 27.538 27.538 0 0 0 223.946 55.176 Q 230.079 51.992 233.399 45.488 A 25.351 25.351 0 0 0 234.68 42.513 Q 235.754 39.517 236.263 35.925 A 49.587 49.587 0 0 0 236.72 28.984 A 50.11 50.11 0 0 0 236.543 24.698 Q 235.599 13.708 229.61 7.637 A 23.324 23.324 0 0 0 218.401 1.36 A 33.546 33.546 0 0 0 210.274 0.43 A 45.541 45.541 0 0 0 209.679 0.434 Q 205.233 0.492 201.467 1.422 A 23.992 23.992 0 0 0 189.923 7.793 A 21.821 21.821 0 0 0 185.69 13.909 Q 184.024 17.437 183.262 21.904 A 48.909 48.909 0 0 0 182.618 30.117 A 50.367 50.367 0 0 0 182.673 32.492 Q 183.044 40.342 185.919 45.82 Q 189.22 52.109 195.235 55.234 A 26.756 26.756 0 0 0 202.278 57.684 Z M 628.294 57.684 A 35.594 35.594 0 0 0 635.392 58.359 A 37.879 37.879 0 0 0 642.101 57.793 A 27.538 27.538 0 0 0 649.962 55.176 Q 656.095 51.992 659.415 45.488 A 25.351 25.351 0 0 0 660.696 42.513 Q 661.77 39.517 662.278 35.925 A 49.587 49.587 0 0 0 662.735 28.984 A 50.11 50.11 0 0 0 662.559 24.698 Q 661.615 13.708 655.626 7.637 A 23.324 23.324 0 0 0 644.417 1.36 A 33.546 33.546 0 0 0 636.29 0.43 A 45.541 45.541 0 0 0 635.694 0.434 Q 631.248 0.492 627.483 1.422 A 23.992 23.992 0 0 0 615.939 7.793 A 21.821 21.821 0 0 0 611.705 13.909 Q 610.04 17.437 609.278 21.904 A 48.909 48.909 0 0 0 608.634 30.117 A 50.367 50.367 0 0 0 608.689 32.492 Q 609.059 40.342 611.935 45.82 Q 615.235 52.109 621.251 55.234 A 26.756 26.756 0 0 0 628.294 57.684 Z M 71.29 7.617 L 71.29 55.313 A 4.407 4.407 0 0 1 71.258 55.869 Q 71.181 56.47 70.923 56.802 A 1.074 1.074 0 0 1 70.802 56.934 A 1.39 1.39 0 0 1 70.363 57.198 Q 69.957 57.358 69.342 57.379 A 5.66 5.66 0 0 1 69.142 57.383 L 60.821 57.383 A 4.819 4.819 0 0 1 60.247 57.351 Q 59.649 57.279 59.301 57.043 A 1.188 1.188 0 0 1 59.161 56.934 A 1.245 1.245 0 0 1 58.864 56.495 Q 58.699 56.106 58.676 55.507 A 5.194 5.194 0 0 1 58.673 55.313 L 58.673 7.617 A 5.278 5.278 0 0 1 58.707 6.993 Q 58.787 6.322 59.054 5.913 A 1.59 1.59 0 0 1 59.064 5.898 Q 60.504 3.786 62.888 1.49 A 45.419 45.419 0 0 1 63.985 0.469 A 3.326 3.326 0 0 1 64.294 0.247 Q 64.629 0.037 64.905 0.006 A 0.841 0.841 0 0 1 65.001 0 Q 65.47 0 65.978 0.469 A 35.008 35.008 0 0 1 67.377 1.741 Q 68.079 2.418 68.658 3.063 A 20.434 20.434 0 0 1 68.868 3.301 A 32.494 32.494 0 0 1 70.088 4.786 A 25.419 25.419 0 0 1 70.899 5.898 A 2.279 2.279 0 0 1 71.156 6.496 Q 71.29 6.976 71.29 7.617 Z M 307.462 7.617 L 307.462 55.313 A 4.407 4.407 0 0 1 307.43 55.869 Q 307.353 56.47 307.094 56.802 A 1.074 1.074 0 0 1 306.974 56.934 A 1.39 1.39 0 0 1 306.534 57.198 Q 306.129 57.358 305.514 57.379 A 5.66 5.66 0 0 1 305.314 57.383 L 296.993 57.383 A 4.819 4.819 0 0 1 296.419 57.351 Q 295.821 57.279 295.473 57.043 A 1.188 1.188 0 0 1 295.333 56.934 A 1.245 1.245 0 0 1 295.036 56.495 Q 294.871 56.106 294.848 55.507 A 5.194 5.194 0 0 1 294.845 55.313 L 294.845 7.617 A 5.278 5.278 0 0 1 294.879 6.993 Q 294.959 6.322 295.226 5.913 A 1.59 1.59 0 0 1 295.235 5.898 Q 296.676 3.786 299.06 1.49 A 45.419 45.419 0 0 1 300.157 0.469 A 3.326 3.326 0 0 1 300.466 0.247 Q 300.801 0.037 301.077 0.006 A 0.841 0.841 0 0 1 301.173 0 Q 301.642 0 302.149 0.469 A 35.008 35.008 0 0 1 303.549 1.741 Q 304.251 2.418 304.83 3.063 A 20.434 20.434 0 0 1 305.04 3.301 A 32.494 32.494 0 0 1 306.26 4.786 A 25.419 25.419 0 0 1 307.071 5.898 A 2.279 2.279 0 0 1 307.328 6.496 Q 307.462 6.976 307.462 7.617 Z M 209.61 47.813 Q 216.642 47.813 220.04 42.773 Q 223.439 37.734 223.439 29.688 Q 223.439 20.352 220.235 15.664 A 10.301 10.301 0 0 0 213.893 11.412 A 16.924 16.924 0 0 0 209.923 10.977 Q 197.699 10.977 196.131 25.014 A 40.052 40.052 0 0 0 195.899 29.453 A 33.02 33.02 0 0 0 196.299 34.743 Q 197.061 39.434 199.278 42.754 Q 202.657 47.813 209.61 47.813 Z M 635.626 47.813 Q 642.657 47.813 646.056 42.773 Q 649.454 37.734 649.454 29.688 Q 649.454 20.352 646.251 15.664 A 10.301 10.301 0 0 0 639.908 11.412 A 16.924 16.924 0 0 0 635.939 10.977 Q 623.715 10.977 622.146 25.014 A 40.052 40.052 0 0 0 621.915 29.453 A 33.02 33.02 0 0 0 622.314 34.743 Q 623.077 39.434 625.294 42.754 Q 628.673 47.813 635.626 47.813 Z M 392.774 13.711 L 392.54 13.711 A 45.847 45.847 0 0 0 390.106 18.136 Q 388.905 20.62 387.814 23.516 A 115.786 115.786 0 0 0 384.103 35.234 L 401.056 35.234 A 130.985 130.985 0 0 0 397.267 23.516 A 84.921 84.921 0 0 0 395.349 18.832 Q 394.328 16.546 393.267 14.594 A 48.333 48.333 0 0 0 392.774 13.711 Z M 470.782 13.711 L 470.548 13.711 A 45.847 45.847 0 0 0 468.114 18.136 Q 466.912 20.62 465.821 23.516 A 115.786 115.786 0 0 0 462.11 35.234 L 479.064 35.234 A 130.985 130.985 0 0 0 475.274 23.516 A 84.921 84.921 0 0 0 473.357 18.832 Q 472.336 16.546 471.274 14.594 A 48.333 48.333 0 0 0 470.782 13.711 Z M 755.001 13.711 L 754.767 13.711 A 45.847 45.847 0 0 0 752.333 18.136 Q 751.131 20.62 750.04 23.516 A 115.786 115.786 0 0 0 746.329 35.234 L 763.282 35.234 A 130.985 130.985 0 0 0 759.493 23.516 A 84.921 84.921 0 0 0 757.576 18.832 Q 756.555 16.546 755.493 14.594 A 48.333 48.333 0 0 0 755.001 13.711 Z" vector-effect="non-scaling-stroke"/></g></svg>